<svg width="49" height="48" viewBox="0 0 49 48" fill="none" xmlns="http://www.w3.org/2000/svg">
<rect x="48.5" y="48" width="48" height="48" rx="24" transform="rotate(-180 48.5 48)" fill="#F5F5F5"/>
<path d="M18.7924 14.7076C18.6995 14.6146 18.6258 14.5043 18.5756 14.3829C18.5253 14.2616 18.4994 14.1314 18.4994 14.0001C18.4994 13.8687 18.5253 13.7386 18.5756 13.6172C18.6258 13.4958 18.6995 13.3855 18.7924 13.2926C18.8854 13.1996 18.9957 13.1259 19.117 13.0757C19.2384 13.0254 19.3686 12.9995 19.4999 12.9995C19.6313 12.9995 19.7614 13.0254 19.8828 13.0757C20.0042 13.1259 20.1145 13.1996 20.2074 13.2926L30.2074 23.2926C30.3004 23.3854 30.3742 23.4957 30.4245 23.6171C30.4748 23.7385 30.5007 23.8686 30.5007 24.0001C30.5007 24.1315 30.4748 24.2616 30.4245 24.383C30.3742 24.5044 30.3004 24.6147 30.2074 24.7076L20.2074 34.7076C20.0198 34.8952 19.7653 35.0006 19.4999 35.0006C19.2346 35.0006 18.9801 34.8952 18.7924 34.7076C18.6048 34.5199 18.4994 34.2654 18.4994 34.0001C18.4994 33.7347 18.6048 33.4802 18.7924 33.2926L28.0862 24.0001L18.7924 14.7076Z" fill="black"/>
</svg>
