<svg width="49" height="48" viewBox="0 0 49 48" fill="none" xmlns="http://www.w3.org/2000/svg">
<rect x="0.5" width="48" height="48" rx="24" fill="#F5F5F5"/>
<path d="M30.2076 33.2924C30.3005 33.3854 30.3742 33.4957 30.4245 33.6171C30.4748 33.7384 30.5007 33.8686 30.5007 33.9999C30.5007 34.1313 30.4748 34.2614 30.4245 34.3828C30.3742 34.5042 30.3005 34.6145 30.2076 34.7074C30.1147 34.8004 30.0044 34.8741 29.883 34.9243C29.7616 34.9746 29.6315 35.0005 29.5001 35.0005C29.3687 35.0005 29.2386 34.9746 29.1172 34.9243C28.9958 34.8741 28.8855 34.8004 28.7926 34.7074L18.7926 24.7074C18.6996 24.6146 18.6259 24.5043 18.5756 24.3829C18.5252 24.2615 18.4993 24.1314 18.4993 23.9999C18.4993 23.8685 18.5252 23.7384 18.5756 23.617C18.6259 23.4956 18.6996 23.3853 18.7926 23.2924L28.7926 13.2924C28.9803 13.1048 29.2348 12.9994 29.5001 12.9994C29.7655 12.9994 30.02 13.1048 30.2076 13.2924C30.3953 13.4801 30.5007 13.7346 30.5007 13.9999C30.5007 14.2653 30.3953 14.5198 30.2076 14.7074L20.9139 23.9999L30.2076 33.2924Z" fill="black"/>
</svg>
